<svg xmlns="http://www.w3.org/2000/svg" width="46.142" height="60.251" viewBox="0 0 45.375 59.25">
  <defs>
    <style>
      .cls-1 {
        fill-rule: evenodd;
      }
    </style>
  </defs>
  <path id="シェイプ_3" data-name="シェイプ 3" class="cls-1" d="M661.2,94.2a4.4,4.4,0,1,0,4.4,4.4A4.394,4.394,0,0,0,661.2,94.2ZM648,59v4.4h4.4l7.92,16.7-2.97,5.39a4.252,4.252,0,0,0-.55,2.112,4.413,4.413,0,0,0,4.4,4.4h26.4V87.6H662.124a0.545,0.545,0,0,1-.55-0.55l0.066-.264,1.98-3.586h16.39a4.379,4.379,0,0,0,3.85-2.266l7.876-14.278A2.15,2.15,0,0,0,692,65.6a2.207,2.207,0,0,0-2.2-2.2H657.262L655.194,59H648Zm35.2,35.2a4.4,4.4,0,1,0,4.4,4.4A4.394,4.394,0,0,0,683.2,94.2ZM653.116,54.692c2.657,0,4.37-1.264,4.37-3.153,0-3.905-6.114-2.785-6.114-4.977,0-.7.672-1.12,1.664-1.12a1.9,1.9,0,0,1,2.081,1.713l2.081-.528c-0.224-2.209-2.129-2.881-3.874-2.881-2.384,0-4.209,1.28-4.209,3.185,0,3.665,6.114,2.833,6.114,4.9,0,0.72-.72,1.168-1.825,1.168a2.262,2.262,0,0,1-2.48-1.665l-2.145.56C649.083,53.667,650.732,54.692,653.116,54.692Zm14.017-10.755v4.785h-4.977V43.936h-2.273V54.5h2.273v-4h4.977v4h2.273V43.936h-2.273Zm10.049,10.755c3.281,0,5.394-1.985,5.394-5.506s-2.033-5.442-5.314-5.442c-3.3,0-5.361,1.889-5.361,5.49C671.9,52.819,674.013,54.692,677.182,54.692Zm0.048-1.809c-1.808,0-2.977-1.2-2.977-3.649,0-2.529,1.1-3.681,2.993-3.681s2.977,1.152,2.977,3.649C680.223,51.651,679.055,52.883,677.23,52.883Zm11.062-8.947h-3.233V54.5h2.257V51.331h1.152c2.993,0,4.9-1.28,4.9-3.777C693.366,45.249,691.813,43.936,688.292,43.936Zm0,5.7h-0.976v-4h1.056c1.825,0,2.641.688,2.641,2C691.013,48.914,690.133,49.634,688.292,49.634Z" transform="translate(-648 -43.75)"/>
</svg>
